# xmcd
# 
# Track frame offsets:
#     150
#     21725
#     40983
#     59526
#     77349
#     111013
#     136476
#     156523
#     176481
#     204996
#     221175
#     237897
#     256358
#     276228
# 
# Disc length: 3981
# 
# Revision: 1
# Processed by: cddbd v1.5.2PL0 Copyright (c) Steve Scherf et al.
# Submitted via: BonkEnc v1.0.15
# 
DISCID=d00f8b0e
DTITLE=Eric Gales - Layin' Down The Blues
DYEAR=2009
DGENRE=Blues
TTITLE0=Layin' Down The Blues
TTITLE1=I Ain't No Shrink
TTITLE2=I Got Me A Woman
TTITLE3=Retribution
TTITLE4=Freedom From My Demons
TTITLE5=Save Yourself
TTITLE6=The Psychedelic Underground
TTITLE7=Crystal Vision
TTITLE8=Dark Corners Of My Mind
TTITLE9=The Sound Of Electric Guitar
TTITLE10=Wake Up Call
TTITLE11=Sleepy Time Time
TTITLE12=The Open Road (Previously Unreleased)
TTITLE13=The Kind Of Love You Feel (Previously Unreleased)
EXTD=
EXTT0=
EXTT1=
EXTT2=
EXTT3=
EXTT4=
EXTT5=
EXTT6=
EXTT7=
EXTT8=
EXTT9=
EXTT10=
EXTT11=
EXTT12=
EXTT13=
PLAYORDER=
